<svg width="24" height="24" viewBox="0 0 24 24" fill="none" xmlns="http://www.w3.org/2000/svg">
<path d="M16.5 12.7496C18.7941 12.7496 23 13.6068 23 17.0353C23 18.5353 22.6176 18.7496 21.8529 18.7496L15.7628 18.7504C15.9208 18.2613 16 17.6877 16 17.0353C16 15.3125 15.3686 13.9686 14.3282 12.9735C15.1113 12.813 15.8763 12.7496 16.5 12.7496ZM7.5 12.7496C9.79412 12.7496 14 13.6068 14 17.0353C14 18.5353 13.6176 18.7496 12.8529 18.7496H2.14706C1.38235 18.7496 1 18.5353 1 17.0353C1 13.6068 5.20588 12.7496 7.5 12.7496ZM7.5 5.24963C9.1575 5.24963 10.5 6.59213 10.5 8.24963C10.5 9.90713 9.1575 11.2496 7.5 11.2496C5.8425 11.2496 4.5 9.90713 4.5 8.24963C4.5 6.59213 5.8425 5.24963 7.5 5.24963ZM16.5 5.24963C18.1575 5.24963 19.5 6.59213 19.5 8.24963C19.5 9.90713 18.1575 11.2496 16.5 11.2496C14.8425 11.2496 13.5 9.90713 13.5 8.24963C13.5 6.59213 14.8425 5.24963 16.5 5.24963Z" fill="white"/>
</svg>
