<svg width="24" height="24" viewBox="0 0 24 24" fill="none" xmlns="http://www.w3.org/2000/svg">
<path d="M19 14.4855C19 17.957 17.7641 18.705 15.7192 18.98C14.6568 19.1228 13 18.5658 13 16.5476C13 15.5618 13.821 14.5825 14.8459 14.3811C15.7963 14.1942 14.5376 14.4385 16.6877 14.029C17.0341 13.9631 17.0049 13.7164 17.0049 13.4491C17.0049 13.2311 17.0038 11.23 17.0031 10.0148L17 10.033L17.0049 7.45692C17.0049 7.22036 16.9318 7.1089 16.66 7.17689L9.3645 8.50635C9.05986 8.58254 9 8.70906 9 9V16.4855C9 19.957 7.76409 20.705 5.7192 20.98C4.65685 21.1228 3 20.5658 3 18.5476C3 17.5618 3.82105 16.5825 4.84586 16.3811C5.79628 16.1942 4.53761 16.4385 6.68775 16.029C7.03411 15.9631 7.00489 15.7164 7.00489 15.4491C7.00489 15.2126 7.00357 12.8763 7.00291 11.723L7.00255 11.0855L7.003 11.085L7 8.54965C7 8.54965 6.99591 6.97597 7 6.18914C7.00489 5.24806 7.51028 4.90221 9 4.5958L17 3.1182C17 3.1182 19 2.49293 19 4.11863V14.4855Z" fill="white"/>
</svg>
